# xmcd
#
# Track frame offsets: 
#        150
#        11254
#        22070
#        39017
#        47445
#        57809
#        69108
#        82126
#        92328
#        105688
#        117559
#        132277
#        147387
#        160300
#        176643
#
# Disc length: 2540 seconds
#
# Revision: 0
# Processed by: cddbd v1.5.2PL0 Copyright (c) Steve Scherf et al.
# Submitted via: ExactAudioCopyFreeDBPlugin 1.0
#
DISCID=bc09ea0f
DTITLE=Various Artist - Musik Für Unterwegs - Trucker and Country - CD1
DYEAR=1900
DGENRE=Country
TTITLE0=Johnny Cash - Oh Lonesome Me
TTITLE1=Roger Miller - King Of The Road
TTITLE2=Lynn Anderson - Blue Bayou
TTITLE3=Lorne Greene - Bonanza
TTITLE4=Dave Dudley - Six Days On The Road
TTITLE5=Charlie Pride - Help Me Make It Trough The Night
TTITLE6=Hank Williams - Jambalaya (On The Bayou)
TTITLE7=Willie Nelson - Eight More Miles To Louisville
TTITLE8=Jimmy Dean - Big Bad John
TTITLE9=Don Williams - Tulsa Time
TTITLE10=Nev Nichols - Bull Dog Mack
TTITLE11=Billie Jo Spears - Blanket On The Ground
TTITLE12=Charlie Rich - The Most Beautiful Girl
TTITLE13=Rex Allen - Memory Train
TTITLE14=John Denver - Take Me Home Country Road (Concert Recording)
EXTD=
EXTT0=
EXTT1=
EXTT2=
EXTT3=
EXTT4=
EXTT5=
EXTT6=
EXTT7=
EXTT8=
EXTT9=
EXTT10=
EXTT11=
EXTT12=
EXTT13=
EXTT14=
PLAYORDER=
